<?xml version="1.0" standalone="no"?>
<!DOCTYPE svg PUBLIC "-//W3C//DTD SVG 20010904//EN"
 "http://www.w3.org/TR/2001/REC-SVG-20010904/DTD/svg10.dtd">
<svg version="1.0" xmlns="http://www.w3.org/2000/svg"
 width="512.000000pt" height="512.000000pt" viewBox="0 0 512.000000 512.000000"
 preserveAspectRatio="xMidYMid meet" color="#000000">

<g transform="translate(0.000000,512.000000) scale(0.100000,-0.100000)"
fill="#000000" stroke="fill">
<path d="M2755 5106 c-84 -21 -147 -57 -210 -121 -98 -98 -135 -198 -135 -370
l0 -94 -32 -5 c-18 -3 -71 -8 -118 -11 -336 -23 -685 -136 -940 -304 -121 -79
-310 -270 -393 -396 -195 -296 -294 -652 -314 -1125 -6 -136 -4 -148 16 -187
30 -59 79 -83 172 -83 69 0 71 -1 65 -22 -14 -55 -18 -301 -7 -427 16 -162 52
-348 76 -385 22 -33 84 -66 122 -66 15 0 62 9 103 20 41 11 80 20 85 20 6 0
10 -69 10 -188 1 -202 5 -235 72 -497 20 -77 44 -157 55 -177 21 -42 79 -78
127 -78 33 0 228 54 334 93 47 17 70 21 72 14 44 -145 81 -223 148 -312 63
-85 144 -164 279 -272 145 -115 174 -133 216 -133 46 0 75 17 214 129 150 119
244 213 305 305 49 73 109 200 119 254 7 36 14 38 75 16 95 -33 314 -94 341
-94 44 0 105 36 124 72 25 48 91 305 115 448 17 99 20 156 17 273 -2 81 1 147
5 147 5 0 45 -9 90 -21 125 -32 188 -15 227 61 25 48 56 214 71 375 11 121 7
366 -7 422 -6 22 -4 23 65 23 93 0 142 24 172 83 21 39 22 51 16 192 -19 465
-123 833 -318 1126 -86 129 -264 306 -394 392 -227 150 -486 242 -804 287 -75
11 -158 20 -186 20 -95 1 -95 0 -95 102 0 67 5 98 19 126 22 43 84 82 130 82
77 0 151 74 151 150 0 50 -35 107 -80 130 -44 23 -100 24 -175 6z m-20 -901
c106 -19 211 -71 266 -133 58 -65 106 -171 131 -288 31 -145 31 -446 1 -556
-73 -259 -226 -489 -468 -700 -49 -43 -96 -78 -104 -78 -21 0 -137 99 -229
194 -108 113 -188 223 -249 342 -98 192 -130 342 -119 569 22 479 185 662 591
664 55 0 136 -6 180 -14z m-987 -181 c-86 -221 -112 -585 -59 -829 10 -49 22
-97 26 -106 5 -12 -13 -29 -73 -67 -168 -108 -430 -225 -606 -271 -129 -34
-123 -38 -114 77 48 573 288 993 683 1194 45 23 154 72 171 78 1 0 -12 -34
-28 -76z m1772 -6 c246 -132 416 -320 535 -590 72 -162 124 -385 143 -610 9
-104 14 -101 -114 -67 -176 46 -407 149 -594 264 -71 44 -90 61 -85 74 4 9 17
59 28 111 18 79 21 127 21 290 0 245 -28 411 -94 565 l-19 44 52 -20 c29 -11
86 -38 127 -61z m-1611 -1328 c35 -54 90 -128 122 -163 33 -36 59 -71 59 -77
0 -24 -102 -150 -186 -229 -101 -96 -246 -195 -370 -252 -105 -49 -346 -131
-356 -121 -4 4 -13 69 -19 145 -10 108 -10 168 0 285 18 212 12 197 90 223
163 54 383 159 525 249 33 22 63 39 66 39 3 0 34 -45 69 -99z m1435 62 c147
-93 371 -199 527 -251 78 -26 72 -11 90 -223 10 -117 10 -177 0 -285 -6 -76
-15 -141 -19 -145 -11 -10 -259 75 -365 126 -130 62 -267 156 -365 250 -86 82
-182 203 -182 228 0 8 12 25 26 39 34 32 164 204 194 257 13 23 26 42 28 42 3
0 32 -17 66 -38z m-952 -558 c83 -61 130 -84 171 -84 34 0 120 45 189 101 20
16 40 29 45 29 4 0 21 -19 38 -43 16 -23 58 -74 93 -114 l63 -73 -20 -83 c-26
-102 -112 -274 -194 -389 -73 -102 -204 -258 -217 -258 -12 0 -143 156 -218
258 -79 111 -166 284 -193 389 l-22 81 73 84 c40 45 82 98 94 115 11 18 24 33
28 33 5 0 36 -21 70 -46z m-488 -478 c46 -115 127 -257 216 -380 39 -54 68
-101 65 -106 -11 -18 -190 -132 -265 -170 -73 -37 -269 -110 -294 -110 -13 0
-48 134 -66 250 -13 84 -13 257 0 340 20 125 14 116 103 158 45 22 109 55 142
75 33 19 61 35 62 34 0 -1 17 -42 37 -91z m1552 -16 c90 -42 85 -34 105 -168
18 -125 7 -313 -26 -457 -15 -66 -29 -122 -31 -124 -8 -9 -178 51 -271 94 -84
39 -220 123 -282 173 l-23 19 67 91 c90 124 178 278 221 389 l36 93 62 -36
c33 -19 98 -53 142 -74z m-1030 -721 c84 -89 174 -90 265 -2 l36 34 85 -63
c47 -35 93 -67 102 -73 15 -9 15 -16 -4 -89 -29 -115 -79 -197 -179 -296 -47
-47 -105 -98 -129 -114 l-42 -29 -42 29 c-78 52 -213 195 -252 265 -44 80 -83
219 -64 230 7 4 51 36 98 72 47 36 88 65 91 66 3 1 18 -13 35 -30z"/>
</g>
</svg>
